<mxfile host="app.diagrams.net" modified="2023-11-04T18:40:26.419Z" agent="Mozilla/5.0 (Windows NT 10.0; Win64; x64) AppleWebKit/537.36 (KHTML, like Gecko) Chrome/118.0.0.0 Safari/537.36" etag="4CZ8_hHWdqyXeIFssmcH" version="22.0.8" type="device">
  <diagram id="C5RBs43oDa-KdzZeNtuy" name="Page-1">
    <mxGraphModel dx="2000" dy="568" grid="1" gridSize="10" guides="1" tooltips="1" connect="1" arrows="1" fold="1" page="1" pageScale="1" pageWidth="827" pageHeight="1169" math="0" shadow="0">
      <root>
        <mxCell id="WIyWlLk6GJQsqaUBKTNV-0" />
        <mxCell id="WIyWlLk6GJQsqaUBKTNV-1" parent="WIyWlLk6GJQsqaUBKTNV-0" />
        <mxCell id="zkfFHV4jXpPFQw0GAbJ--0" value="Alumno" style="swimlane;fontStyle=2;align=center;verticalAlign=top;childLayout=stackLayout;horizontal=1;startSize=26;horizontalStack=0;resizeParent=1;resizeLast=0;collapsible=1;marginBottom=0;rounded=0;shadow=0;strokeWidth=1;" parent="WIyWlLk6GJQsqaUBKTNV-1" vertex="1">
          <mxGeometry x="-30" y="10" width="490" height="258" as="geometry">
            <mxRectangle x="230" y="140" width="160" height="26" as="alternateBounds" />
          </mxGeometry>
        </mxCell>
        <mxCell id="zkfFHV4jXpPFQw0GAbJ--1" value="- nombre: String " style="text;align=left;verticalAlign=top;spacingLeft=4;spacingRight=4;overflow=hidden;rotatable=0;points=[[0,0.5],[1,0.5]];portConstraint=eastwest;" parent="zkfFHV4jXpPFQw0GAbJ--0" vertex="1">
          <mxGeometry y="26" width="490" height="26" as="geometry" />
        </mxCell>
        <mxCell id="zkfFHV4jXpPFQw0GAbJ--2" value="- apellido: String" style="text;align=left;verticalAlign=top;spacingLeft=4;spacingRight=4;overflow=hidden;rotatable=0;points=[[0,0.5],[1,0.5]];portConstraint=eastwest;rounded=0;shadow=0;html=0;" parent="zkfFHV4jXpPFQw0GAbJ--0" vertex="1">
          <mxGeometry y="52" width="490" height="26" as="geometry" />
        </mxCell>
        <mxCell id="zkfFHV4jXpPFQw0GAbJ--3" value="- idAlumno: String " style="text;align=left;verticalAlign=top;spacingLeft=4;spacingRight=4;overflow=hidden;rotatable=0;points=[[0,0.5],[1,0.5]];portConstraint=eastwest;rounded=0;shadow=0;html=0;" parent="zkfFHV4jXpPFQw0GAbJ--0" vertex="1">
          <mxGeometry y="78" width="490" height="26" as="geometry" />
        </mxCell>
        <mxCell id="iEClD9WP2Q2Nl0ErzrN4-0" value="- materiasAprobadas: List&amp;lt;Materia&amp;gt;" style="text;strokeColor=none;align=left;fillColor=none;html=1;verticalAlign=middle;whiteSpace=wrap;rounded=0;" parent="zkfFHV4jXpPFQw0GAbJ--0" vertex="1">
          <mxGeometry y="104" width="490" height="30" as="geometry" />
        </mxCell>
        <mxCell id="zkfFHV4jXpPFQw0GAbJ--4" value="" style="line;html=1;strokeWidth=1;align=left;verticalAlign=middle;spacingTop=-1;spacingLeft=3;spacingRight=3;rotatable=0;labelPosition=right;points=[];portConstraint=eastwest;" parent="zkfFHV4jXpPFQw0GAbJ--0" vertex="1">
          <mxGeometry y="134" width="490" height="8" as="geometry" />
        </mxCell>
        <mxCell id="zkfFHV4jXpPFQw0GAbJ--5" value="+ getIdALumno() :String&#xa;" style="text;align=left;verticalAlign=top;spacingLeft=4;spacingRight=4;overflow=hidden;rotatable=0;points=[[0,0.5],[1,0.5]];portConstraint=eastwest;" parent="zkfFHV4jXpPFQw0GAbJ--0" vertex="1">
          <mxGeometry y="142" width="490" height="26" as="geometry" />
        </mxCell>
        <mxCell id="74dnQ7F0EY-RlnbEdRR1-0" value="+ getMateriasAprobadas(): List&amp;lt;Materia&amp;gt;" style="text;strokeColor=none;align=left;fillColor=none;html=1;verticalAlign=middle;whiteSpace=wrap;rounded=0;" vertex="1" parent="zkfFHV4jXpPFQw0GAbJ--0">
          <mxGeometry y="168" width="490" height="30" as="geometry" />
        </mxCell>
        <mxCell id="74dnQ7F0EY-RlnbEdRR1-1" value="&lt;div&gt;+ buscarAlumno(id: String, alumnos: List&amp;lt;Alumno&amp;gt;): Alumno&lt;/div&gt;&lt;div&gt;&lt;br&gt;&lt;/div&gt;" style="text;strokeColor=none;align=left;fillColor=none;html=1;verticalAlign=middle;whiteSpace=wrap;rounded=0;" vertex="1" parent="zkfFHV4jXpPFQw0GAbJ--0">
          <mxGeometry y="198" width="490" height="30" as="geometry" />
        </mxCell>
        <mxCell id="74dnQ7F0EY-RlnbEdRR1-3" value="&lt;div&gt;&lt;div&gt;+ cargarAlumnosDesdeArchivo(filePath: String, materias: List&amp;lt;Materia&amp;gt;): List&amp;lt;Alumno&amp;gt;&lt;/div&gt;&lt;/div&gt;&lt;div&gt;&lt;br&gt;&lt;/div&gt;" style="text;strokeColor=none;align=left;fillColor=none;html=1;verticalAlign=middle;whiteSpace=wrap;rounded=0;" vertex="1" parent="zkfFHV4jXpPFQw0GAbJ--0">
          <mxGeometry y="228" width="490" height="30" as="geometry" />
        </mxCell>
        <mxCell id="74dnQ7F0EY-RlnbEdRR1-5" value="Materia" style="swimlane;fontStyle=2;align=center;verticalAlign=top;childLayout=stackLayout;horizontal=1;startSize=26;horizontalStack=0;resizeParent=1;resizeLast=0;collapsible=1;marginBottom=0;rounded=0;shadow=0;strokeWidth=1;" vertex="1" parent="WIyWlLk6GJQsqaUBKTNV-1">
          <mxGeometry x="-30" y="400" width="490" height="262" as="geometry">
            <mxRectangle x="230" y="140" width="160" height="26" as="alternateBounds" />
          </mxGeometry>
        </mxCell>
        <mxCell id="74dnQ7F0EY-RlnbEdRR1-6" value="- nombreMateria: String " style="text;align=left;verticalAlign=top;spacingLeft=4;spacingRight=4;overflow=hidden;rotatable=0;points=[[0,0.5],[1,0.5]];portConstraint=eastwest;" vertex="1" parent="74dnQ7F0EY-RlnbEdRR1-5">
          <mxGeometry y="26" width="490" height="26" as="geometry" />
        </mxCell>
        <mxCell id="74dnQ7F0EY-RlnbEdRR1-8" value="- idMateria: String " style="text;align=left;verticalAlign=top;spacingLeft=4;spacingRight=4;overflow=hidden;rotatable=0;points=[[0,0.5],[1,0.5]];portConstraint=eastwest;rounded=0;shadow=0;html=0;" vertex="1" parent="74dnQ7F0EY-RlnbEdRR1-5">
          <mxGeometry y="52" width="490" height="26" as="geometry" />
        </mxCell>
        <mxCell id="74dnQ7F0EY-RlnbEdRR1-9" value="- correlativas: List&amp;lt;Materia&amp;gt;" style="text;strokeColor=none;align=left;fillColor=none;html=1;verticalAlign=middle;whiteSpace=wrap;rounded=0;" vertex="1" parent="74dnQ7F0EY-RlnbEdRR1-5">
          <mxGeometry y="78" width="490" height="30" as="geometry" />
        </mxCell>
        <mxCell id="74dnQ7F0EY-RlnbEdRR1-10" value="" style="line;html=1;strokeWidth=1;align=left;verticalAlign=middle;spacingTop=-1;spacingLeft=3;spacingRight=3;rotatable=0;labelPosition=right;points=[];portConstraint=eastwest;" vertex="1" parent="74dnQ7F0EY-RlnbEdRR1-5">
          <mxGeometry y="108" width="490" height="8" as="geometry" />
        </mxCell>
        <mxCell id="74dnQ7F0EY-RlnbEdRR1-11" value="+ getIdMateria() :String&#xa;" style="text;align=left;verticalAlign=top;spacingLeft=4;spacingRight=4;overflow=hidden;rotatable=0;points=[[0,0.5],[1,0.5]];portConstraint=eastwest;" vertex="1" parent="74dnQ7F0EY-RlnbEdRR1-5">
          <mxGeometry y="116" width="490" height="26" as="geometry" />
        </mxCell>
        <mxCell id="74dnQ7F0EY-RlnbEdRR1-12" value="+ getCorrelativas(): List&amp;lt;Materia&amp;gt;" style="text;strokeColor=none;align=left;fillColor=none;html=1;verticalAlign=middle;whiteSpace=wrap;rounded=0;" vertex="1" parent="74dnQ7F0EY-RlnbEdRR1-5">
          <mxGeometry y="142" width="490" height="30" as="geometry" />
        </mxCell>
        <mxCell id="74dnQ7F0EY-RlnbEdRR1-14" value="&lt;div&gt;&lt;div&gt;+ cargarMateriasDesdeArchivo(filePath: String): List&amp;lt;Materia&amp;gt;&lt;/div&gt;&lt;/div&gt;&lt;div&gt;&lt;br&gt;&lt;/div&gt;" style="text;strokeColor=none;align=left;fillColor=none;html=1;verticalAlign=middle;whiteSpace=wrap;rounded=0;" vertex="1" parent="74dnQ7F0EY-RlnbEdRR1-5">
          <mxGeometry y="172" width="490" height="30" as="geometry" />
        </mxCell>
        <mxCell id="74dnQ7F0EY-RlnbEdRR1-15" value="&lt;div&gt;&lt;div&gt;+ puedeCursar(alumno: Alumno, materia: Materia): boolean&lt;/div&gt;&lt;/div&gt;" style="text;strokeColor=none;align=left;fillColor=none;html=1;verticalAlign=middle;whiteSpace=wrap;rounded=0;" vertex="1" parent="74dnQ7F0EY-RlnbEdRR1-5">
          <mxGeometry y="202" width="490" height="30" as="geometry" />
        </mxCell>
        <mxCell id="74dnQ7F0EY-RlnbEdRR1-16" value="+ buscarMateria( materia: Materia, materias: List&amp;lt;Materia&amp;gt;): materia" style="text;strokeColor=none;align=left;fillColor=none;html=1;verticalAlign=middle;whiteSpace=wrap;rounded=0;" vertex="1" parent="74dnQ7F0EY-RlnbEdRR1-5">
          <mxGeometry y="232" width="490" height="30" as="geometry" />
        </mxCell>
        <mxCell id="74dnQ7F0EY-RlnbEdRR1-17" value="Inscripcion" style="swimlane;fontStyle=2;align=center;verticalAlign=top;childLayout=stackLayout;horizontal=1;startSize=26;horizontalStack=0;resizeParent=1;resizeLast=0;collapsible=1;marginBottom=0;rounded=0;shadow=0;strokeWidth=1;" vertex="1" parent="WIyWlLk6GJQsqaUBKTNV-1">
          <mxGeometry x="700" y="220" width="490" height="262" as="geometry">
            <mxRectangle x="230" y="140" width="160" height="26" as="alternateBounds" />
          </mxGeometry>
        </mxCell>
        <mxCell id="74dnQ7F0EY-RlnbEdRR1-18" value="- materia: Materia" style="text;align=left;verticalAlign=top;spacingLeft=4;spacingRight=4;overflow=hidden;rotatable=0;points=[[0,0.5],[1,0.5]];portConstraint=eastwest;" vertex="1" parent="74dnQ7F0EY-RlnbEdRR1-17">
          <mxGeometry y="26" width="490" height="26" as="geometry" />
        </mxCell>
        <mxCell id="74dnQ7F0EY-RlnbEdRR1-19" value="- alumno: Alumno" style="text;align=left;verticalAlign=top;spacingLeft=4;spacingRight=4;overflow=hidden;rotatable=0;points=[[0,0.5],[1,0.5]];portConstraint=eastwest;rounded=0;shadow=0;html=0;" vertex="1" parent="74dnQ7F0EY-RlnbEdRR1-17">
          <mxGeometry y="52" width="490" height="26" as="geometry" />
        </mxCell>
        <mxCell id="74dnQ7F0EY-RlnbEdRR1-21" value="" style="line;html=1;strokeWidth=1;align=left;verticalAlign=middle;spacingTop=-1;spacingLeft=3;spacingRight=3;rotatable=0;labelPosition=right;points=[];portConstraint=eastwest;" vertex="1" parent="74dnQ7F0EY-RlnbEdRR1-17">
          <mxGeometry y="78" width="490" height="8" as="geometry" />
        </mxCell>
        <mxCell id="74dnQ7F0EY-RlnbEdRR1-22" value="+ getMateria() :Materia&#xa;" style="text;align=left;verticalAlign=top;spacingLeft=4;spacingRight=4;overflow=hidden;rotatable=0;points=[[0,0.5],[1,0.5]];portConstraint=eastwest;" vertex="1" parent="74dnQ7F0EY-RlnbEdRR1-17">
          <mxGeometry y="86" width="490" height="26" as="geometry" />
        </mxCell>
        <mxCell id="74dnQ7F0EY-RlnbEdRR1-23" value="+ getAlumno(): Alumno" style="text;strokeColor=none;align=left;fillColor=none;html=1;verticalAlign=middle;whiteSpace=wrap;rounded=0;" vertex="1" parent="74dnQ7F0EY-RlnbEdRR1-17">
          <mxGeometry y="112" width="490" height="30" as="geometry" />
        </mxCell>
        <mxCell id="74dnQ7F0EY-RlnbEdRR1-24" value="&lt;div&gt;&lt;div&gt;+ aprobada(): boolean&lt;/div&gt;&lt;/div&gt;" style="text;strokeColor=none;align=left;fillColor=none;html=1;verticalAlign=middle;whiteSpace=wrap;rounded=0;" vertex="1" parent="74dnQ7F0EY-RlnbEdRR1-17">
          <mxGeometry y="142" width="490" height="30" as="geometry" />
        </mxCell>
        <mxCell id="74dnQ7F0EY-RlnbEdRR1-28" value="1" style="endArrow=open;html=1;endSize=12;startArrow=diamondThin;startSize=14;startFill=0;edgeStyle=orthogonalEdgeStyle;align=left;verticalAlign=bottom;rounded=0;entryX=0.25;entryY=1;entryDx=0;entryDy=0;" edge="1" parent="74dnQ7F0EY-RlnbEdRR1-17" target="74dnQ7F0EY-RlnbEdRR1-17">
          <mxGeometry x="-1" y="3" relative="1" as="geometry">
            <mxPoint x="-240" y="310" as="sourcePoint" />
            <mxPoint x="250" y="130" as="targetPoint" />
          </mxGeometry>
        </mxCell>
        <mxCell id="74dnQ7F0EY-RlnbEdRR1-26" value="+ cargarInscripcionesDesdeArchivo(filePath: String, alumnos: List&amp;lt;Alumnos&amp;gt;, materias: List&amp;lt;Materia&amp;gt;): List&amp;lt;Inscripcion&amp;gt;" style="text;strokeColor=none;align=left;fillColor=none;html=1;verticalAlign=middle;whiteSpace=wrap;rounded=0;" vertex="1" parent="74dnQ7F0EY-RlnbEdRR1-17">
          <mxGeometry y="172" width="490" height="30" as="geometry" />
        </mxCell>
        <mxCell id="74dnQ7F0EY-RlnbEdRR1-27" value="1" style="endArrow=open;html=1;endSize=12;startArrow=diamondThin;startSize=14;startFill=0;edgeStyle=orthogonalEdgeStyle;align=left;verticalAlign=bottom;rounded=0;exitX=1.004;exitY=-0.115;exitDx=0;exitDy=0;exitPerimeter=0;entryX=0.25;entryY=0;entryDx=0;entryDy=0;" edge="1" parent="WIyWlLk6GJQsqaUBKTNV-1" source="zkfFHV4jXpPFQw0GAbJ--5" target="74dnQ7F0EY-RlnbEdRR1-17">
          <mxGeometry x="-1" y="3" relative="1" as="geometry">
            <mxPoint x="530" y="190" as="sourcePoint" />
            <mxPoint x="690" y="190" as="targetPoint" />
          </mxGeometry>
        </mxCell>
        <mxCell id="74dnQ7F0EY-RlnbEdRR1-29" value="name" style="endArrow=block;endFill=1;html=1;edgeStyle=orthogonalEdgeStyle;align=left;verticalAlign=top;rounded=0;exitX=0.5;exitY=0;exitDx=0;exitDy=0;entryX=0.5;entryY=1;entryDx=0;entryDy=0;" edge="1" parent="WIyWlLk6GJQsqaUBKTNV-1" source="74dnQ7F0EY-RlnbEdRR1-5" target="74dnQ7F0EY-RlnbEdRR1-3">
          <mxGeometry x="-1" relative="1" as="geometry">
            <mxPoint x="520" y="440" as="sourcePoint" />
            <mxPoint x="680" y="440" as="targetPoint" />
          </mxGeometry>
        </mxCell>
        <mxCell id="74dnQ7F0EY-RlnbEdRR1-30" value="1" style="edgeLabel;resizable=0;html=1;align=left;verticalAlign=bottom;" connectable="0" vertex="1" parent="74dnQ7F0EY-RlnbEdRR1-29">
          <mxGeometry x="-1" relative="1" as="geometry" />
        </mxCell>
      </root>
    </mxGraphModel>
  </diagram>
</mxfile>
